<svg width="1600" height="1000" viewBox="0 0 1600 1000" fill="none" xmlns="http://www.w3.org/2000/svg">
  <rect width="1600" height="1000" fill="#070707"/>
  <rect width="1600" height="1000" fill="url(#paint0_radial)"/>
  <path d="M0 766C122 702 197 676 285 676C390 676 454 730 538 730C646 730 700 648 828 648C952 648 1030 728 1138 728C1263 728 1362 648 1600 610V1000H0V766Z" fill="#12090C"/>
  <path d="M0 820C138 772 219 754 315 754C416 754 510 832 620 832C724 832 786 762 904 762C1020 762 1113 842 1230 842C1338 842 1416 778 1600 720V1000H0V820Z" fill="#1F0B12"/>
  <circle cx="374" cy="214" r="150" fill="#8B1730" fill-opacity="0.32"/>
  <circle cx="1236" cy="184" r="188" fill="#F4EFE7" fill-opacity="0.08"/>
  <rect x="126" y="116" width="1" height="320" fill="url(#paint1_linear)"/>
  <rect x="1474" y="164" width="1" height="360" fill="url(#paint2_linear)"/>
  <path d="M214 884C262 834 334 812 410 812C504 812 572 846 648 846C720 846 784 812 880 812C976 812 1052 872 1148 872C1230 872 1302 844 1388 800" stroke="#F4EFE7" stroke-opacity="0.18" stroke-width="2"/>
  <text x="800" y="232" text-anchor="middle" fill="#FFFFFF" font-size="44" font-family="Arial, sans-serif" letter-spacing="12">AAAU CROWD ENERGY</text>
  <text x="800" y="320" text-anchor="middle" fill="#F4EFE7" font-size="124" font-family="Arial, sans-serif" font-weight="700" letter-spacing="14">GAME NIGHT</text>
  <defs>
    <radialGradient id="paint0_radial" cx="0" cy="0" r="1" gradientUnits="userSpaceOnUse" gradientTransform="translate(800 140) rotate(90) scale(620 1020)">
      <stop stop-color="#731127"/>
      <stop offset="1" stop-color="#070707"/>
    </radialGradient>
    <linearGradient id="paint1_linear" x1="126.5" y1="116" x2="126.5" y2="436" gradientUnits="userSpaceOnUse">
      <stop stop-color="#FFFFFF" stop-opacity="0"/>
      <stop offset="0.5" stop-color="#FFFFFF" stop-opacity="0.52"/>
      <stop offset="1" stop-color="#FFFFFF" stop-opacity="0"/>
    </linearGradient>
    <linearGradient id="paint2_linear" x1="1474.5" y1="164" x2="1474.5" y2="524" gradientUnits="userSpaceOnUse">
      <stop stop-color="#8B1730" stop-opacity="0"/>
      <stop offset="0.5" stop-color="#8B1730" stop-opacity="0.72"/>
      <stop offset="1" stop-color="#8B1730" stop-opacity="0"/>
    </linearGradient>
  </defs>
</svg>
