<svg width="1600" height="1000" viewBox="0 0 1600 1000" fill="none" xmlns="http://www.w3.org/2000/svg">
  <rect width="1600" height="1000" fill="#070707"/>
  <rect width="1600" height="1000" fill="url(#paint0_linear)"/>
  <path d="M0 1000L538 344H1036L1600 1000H0Z" fill="#0B0B0B"/>
  <path d="M80 1000L604 406H996L1522 1000H80Z" fill="#17090D"/>
  <path d="M176 1000L646 470H950L1420 1000H176Z" fill="#210B12"/>
  <rect x="224" y="212" width="1" height="420" fill="url(#paint1_linear)"/>
  <rect x="1374" y="144" width="1" height="360" fill="url(#paint2_linear)"/>
  <circle cx="1184" cy="192" r="210" fill="#F4EFE7" fill-opacity="0.06"/>
  <circle cx="394" cy="262" r="178" fill="#8B1730" fill-opacity="0.28"/>
  <text x="800" y="238" text-anchor="middle" fill="#FFFFFF" font-size="38" font-family="Arial, sans-serif" letter-spacing="12">PREMIUM PLACEHOLDER</text>
  <text x="800" y="332" text-anchor="middle" fill="#F4EFE7" font-size="120" font-family="Arial, sans-serif" font-weight="700" letter-spacing="14">SIDELINE</text>
  <text x="800" y="446" text-anchor="middle" fill="#F4EFE7" font-size="120" font-family="Arial, sans-serif" font-weight="700" letter-spacing="14">ENERGY</text>
  <defs>
    <linearGradient id="paint0_linear" x1="800" y1="0" x2="800" y2="1000" gradientUnits="userSpaceOnUse">
      <stop stop-color="#53111D"/>
      <stop offset="0.38" stop-color="#120A0D"/>
      <stop offset="1" stop-color="#070707"/>
    </linearGradient>
    <linearGradient id="paint1_linear" x1="224.5" y1="212" x2="224.5" y2="632" gradientUnits="userSpaceOnUse">
      <stop stop-color="#FFFFFF" stop-opacity="0"/>
      <stop offset="0.54" stop-color="#FFFFFF" stop-opacity="0.4"/>
      <stop offset="1" stop-color="#FFFFFF" stop-opacity="0"/>
    </linearGradient>
    <linearGradient id="paint2_linear" x1="1374.5" y1="144" x2="1374.5" y2="504" gradientUnits="userSpaceOnUse">
      <stop stop-color="#8B1730" stop-opacity="0"/>
      <stop offset="0.48" stop-color="#8B1730" stop-opacity="0.72"/>
      <stop offset="1" stop-color="#8B1730" stop-opacity="0"/>
    </linearGradient>
  </defs>
</svg>
